<?xml version="1.0" standalone="no"?>
<!DOCTYPE svg PUBLIC "-//W3C//DTD SVG 20010904//EN"
 "http://www.w3.org/TR/2001/REC-SVG-20010904/DTD/svg10.dtd">
<svg version="1.0" xmlns="http://www.w3.org/2000/svg"
 width="1350.000000pt" height="1350.000000pt" viewBox="0 0 1350.000000 1350.000000"
 preserveAspectRatio="xMidYMid meet">
<metadata>
Created by potrace 1.11, written by Peter Selinger 2001-2013
</metadata>
<g transform="translate(0.000000,1350.000000) scale(0.100000,-0.100000)"
fill="#000000" stroke="none">
<path d="M1295 11505 c-65 -19 -86 -34 -106 -78 -37 -83 -18 -171 44 -204 27
-15 61 -18 212 -19 133 -1 212 -7 305 -22 156 -27 161 -28 228 -47 210 -61
325 -178 387 -389 29 -102 36 -139 49 -251 4 -27 8 -66 11 -85 3 -19 7 -69 10
-110 2 -41 7 -102 10 -135 34 -419 37 -671 31 -2366 -4 -1089 -4 -1096 -26
-1173 -38 -137 -112 -239 -268 -371 -354 -299 -815 -745 -1362 -1315 -107
-112 -255 -265 -328 -339 -147 -151 -178 -201 -189 -303 -5 -53 -4 -61 8 -52
20 15 182 142 246 193 30 24 186 144 346 268 161 123 299 229 307 236 8 7 134
101 280 210 146 109 272 204 280 210 37 30 616 449 762 552 90 63 168 118 173
123 6 4 46 32 90 62 44 30 82 57 85 60 3 3 23 17 45 32 22 14 90 61 150 103
328 228 913 611 1405 922 30 20 67 44 82 54 15 11 29 19 32 19 3 0 43 24 89
53 104 66 88 55 309 189 312 188 362 218 378 225 8 4 42 23 75 43 58 35 383
221 475 272 25 14 86 47 135 75 151 84 272 151 412 225 48 26 131 69 183 97
138 74 883 447 1035 518 330 156 412 194 710 325 138 60 268 118 290 128 369
165 1153 467 1805 695 222 77 886 289 1065 338 11 3 -18 4 -65 1 -243 -14
-331 -25 -458 -55 -181 -43 -404 -54 -512 -24 -8 2 -31 7 -50 10 -113 18 -286
100 -447 212 -71 48 -136 93 -145 98 -9 6 -38 23 -65 39 -239 143 -574 277
-1054 420 -173 52 -576 145 -739 171 -19 3 -57 10 -85 15 -27 5 -70 12 -95 15
-25 3 -56 7 -70 9 -69 12 -299 41 -400 51 -36 3 -81 8 -100 10 -19 2 -71 7
-115 10 -44 3 -100 8 -125 10 -44 4 -187 12 -327 20 -259 14 -553 19 -1138 19
-590 0 -863 -4 -1395 -19 -823 -24 -1839 -24 -2235 0 -27 1 -108 6 -180 9 -71
4 -148 9 -170 12 -100 11 -253 11 -290 -1z"/>
<path d="M10679 9941 c-86 -27 -450 -226 -797 -436 -9 -6 -51 -30 -92 -54
-142 -84 -566 -354 -825 -526 -237 -157 -302 -202 -505 -343 -97 -68 -364
-256 -375 -264 -5 -5 -77 -57 -159 -116 -371 -268 -1034 -772 -1346 -1025 -9
-6 -72 -57 -140 -111 -251 -200 -900 -733 -920 -756 -3 -3 -30 -25 -60 -50
-51 -42 -97 -81 -124 -105 -6 -5 -40 -35 -76 -65 -36 -30 -70 -59 -76 -65 -6
-5 -32 -28 -59 -50 -26 -22 -53 -45 -59 -50 -6 -6 -42 -37 -81 -70 -38 -33
-72 -62 -75 -65 -3 -3 -39 -35 -80 -71 -118 -103 -451 -397 -514 -454 -13 -11
-56 -50 -97 -86 -41 -37 -86 -77 -100 -90 -36 -34 -210 -192 -224 -204 -6 -5
-42 -39 -80 -75 -39 -36 -119 -110 -179 -165 -60 -55 -153 -140 -205 -190 -52
-49 -110 -103 -127 -120 -44 -41 -321 -306 -416 -396 -42 -41 -129 -125 -193
-188 -129 -126 -118 -104 -130 -276 -4 -49 -8 -101 -9 -115 -2 -14 -7 -56 -10
-95 -4 -38 -9 -81 -11 -95 -2 -14 -6 -52 -10 -85 -3 -33 -8 -73 -10 -90 -5
-35 -22 -169 -29 -238 -10 -84 -17 -141 -21 -167 -2 -14 -6 -45 -10 -70 -3
-25 -10 -76 -15 -115 -5 -38 -12 -90 -15 -115 -4 -25 -8 -56 -10 -70 -2 -14
-7 -45 -10 -70 -26 -192 -52 -268 -115 -343 -68 -81 -140 -127 -260 -167 -73
-25 -76 -26 -180 -45 -135 -25 -163 -29 -275 -41 -120 -13 -185 -59 -185 -131
0 -35 6 -49 28 -70 65 -61 184 -94 337 -94 82 0 198 8 225 16 8 2 31 7 50 10
116 20 272 76 381 138 56 31 143 105 174 148 136 185 772 960 980 1193 6 6 37
43 70 81 33 39 62 72 65 75 3 3 37 41 75 85 39 44 77 87 85 95 8 8 53 58 99
110 47 52 89 100 95 105 6 6 36 37 66 70 203 221 380 405 705 730 394 394 546
541 811 782 71 64 187 168 207 186 12 10 49 42 81 70 119 103 153 133 211 184
95 82 299 249 440 361 71 57 139 111 150 120 29 25 396 298 495 369 158 113
355 246 590 398 168 108 709 425 726 425 3 0 -33 -37 -81 -82 -162 -154 -199
-189 -430 -417 -314 -311 -581 -587 -865 -895 -30 -32 -66 -71 -80 -86 -21
-22 -106 -115 -215 -236 -11 -12 -43 -48 -72 -80 -28 -33 -59 -68 -70 -79 -60
-65 -462 -544 -528 -629 -16 -21 -35 -44 -40 -50 -16 -18 -58 -69 -85 -106
-24 -32 -107 -137 -136 -173 -9 -10 -72 -94 -141 -185 -69 -92 -134 -178 -145
-192 -185 -239 -696 -987 -971 -1420 -93 -147 -393 -634 -424 -690 -11 -19
-41 -69 -67 -111 -72 -120 -93 -200 -62 -241 20 -27 94 -56 161 -63 106 -11
149 -15 190 -19 36 -4 76 -8 215 -21 25 -3 74 -7 110 -10 36 -3 85 -7 110 -10
88 -9 241 -19 420 -30 63 -4 131 -8 150 -10 234 -22 1133 -22 1305 0 17 2 68
6 115 10 47 3 99 8 115 10 17 1 59 6 95 9 67 7 195 23 240 30 14 3 47 7 74 11
27 3 52 8 55 10 3 1 30 6 60 10 30 4 129 22 220 41 91 19 177 37 191 40 45 9
303 75 395 100 215 60 619 202 785 276 503 224 873 449 1244 757 731 608 1284
1474 1573 2466 61 211 121 479 149 674 4 25 8 55 10 66 2 11 7 47 10 80 3 33
7 62 9 65 1 3 6 43 10 90 4 47 8 98 10 113 6 45 18 354 18 442 0 72 -11 337
-18 440 -7 99 -42 380 -59 470 -2 11 -7 40 -11 65 -35 221 -181 750 -249 904
-8 17 -26 63 -41 101 -80 209 -260 574 -347 702 -15 23 -28 44 -28 47 0 22
-227 342 -371 521 -174 217 -237 255 -360 216z"/>
</g>
</svg>
